<?xml version="1.0" encoding="UTF-8" standalone="no"?>
<!-- Created with Inkscape (http://www.inkscape.org/) -->

<svg
   xmlns:dc="http://purl.org/dc/elements/1.1/"
   xmlns:cc="http://creativecommons.org/ns#"
   xmlns:rdf="http://www.w3.org/1999/02/22-rdf-syntax-ns#"
   xmlns:svg="http://www.w3.org/2000/svg"
   xmlns="http://www.w3.org/2000/svg"
   xmlns:sodipodi="http://sodipodi.sourceforge.net/DTD/sodipodi-0.dtd"
   xmlns:inkscape="http://www.inkscape.org/namespaces/inkscape"
   width="500"
   height="500"
   viewBox="0 0 132.29166 132.29167"
   version="1.1"
   id="svg841"
   inkscape:version="0.92.4 (fd57863, 2020-04-02)"
   sodipodi:docname="pattern_spiral.svg">
  <defs
     id="defs835" />
  <sodipodi:namedview
     id="base"
     pagecolor="#ffffff"
     bordercolor="#666666"
     borderopacity="1.0"
     inkscape:pageopacity="0.0"
     inkscape:pageshadow="2"
     inkscape:zoom="0.8741784"
     inkscape:cx="232.85714"
     inkscape:cy="255.71429"
     inkscape:document-units="mm"
     inkscape:current-layer="layer1"
     showgrid="false"
     units="px"
     inkscape:window-width="1299"
     inkscape:window-height="713"
     inkscape:window-x="67"
     inkscape:window-y="27"
     inkscape:window-maximized="1" />
  <metadata
     id="metadata838">
    <rdf:RDF>
      <cc:Work
         rdf:about="">
        <dc:format>image/svg+xml</dc:format>
        <dc:type
           rdf:resource="http://purl.org/dc/dcmitype/StillImage" />
        <dc:title></dc:title>
      </cc:Work>
    </rdf:RDF>
  </metadata>
  <g
     inkscape:label="Layer 1"
     inkscape:groupmode="layer"
     id="layer1"
     transform="translate(0,-164.70832)">
    <g
       id="g1611"
       style="opacity:1">
      <path
         d="m 25.423872,222.54436 c 0.227627,0.10622 -0.03089,0.35924 -0.176554,0.37833 -0.39475,0.0517 -0.623596,-0.39478 -0.580109,-0.73144 0.07779,-0.60221 0.736847,-0.90911 1.286326,-0.78189 0.806383,0.1867 1.20078,1.08273 0.983663,1.84121 -0.289382,1.01095 -1.429849,1.49494 -2.396098,1.18545 -1.215926,-0.38948 -1.790357,-1.77754 -1.387217,-2.95099 0.488255,-1.4212 2.125539,-2.0865 3.50587,-1.58899 1.626672,0.58629 2.383092,2.47373 1.790772,4.06075 -0.683858,1.83228 -2.822062,2.67999 -4.615642,1.99255 -2.03798,-0.78111 -2.977099,-3.17048 -2.194327,-5.17053 0.878152,-2.24375 3.518964,-3.27436 5.725414,-2.3961 2.449578,0.97503 3.571739,3.8675 2.597881,6.2803"
         sodipodi:t0="0"
         sodipodi:argument="-18.41293"
         sodipodi:radius="5.0099998"
         sodipodi:revolution="3"
         sodipodi:expansion="1"
         sodipodi:cy="222.54436"
         sodipodi:cx="25.423872"
         id="path1386"
         style="fill:none;fill-rule:evenodd;stroke:#000000;stroke-width:0.76782083;fill-opacity:1;stroke-miterlimit:4;stroke-dasharray:none"
         sodipodi:type="spiral" />
      <path
         transform="rotate(64.075387,63.067522,195.49414)"
         sodipodi:type="spiral"
         style="fill:none;fill-opacity:1;fill-rule:evenodd;stroke:#000000;stroke-width:1.13989031;stroke-miterlimit:4;stroke-dasharray:none"
         id="path1584"
         sodipodi:cx="62.450176"
         sodipodi:cy="196.11125"
         sodipodi:expansion="1"
         sodipodi:revolution="3"
         sodipodi:radius="7.4377379"
         sodipodi:argument="-18.41293"
         sodipodi:t0="0"
         d="m 62.450176,196.11125 c 0.337931,0.1577 -0.04585,0.53333 -0.262109,0.56166 -0.586036,0.0768 -0.925776,-0.58607 -0.861217,-1.08588 0.115481,-0.89403 1.093908,-1.34964 1.909653,-1.16077 1.197138,0.27718 1.782652,1.6074 1.460325,2.73343 -0.429611,1.50082 -2.122723,2.21935 -3.557196,1.75988 -1.805137,-0.57821 -2.657925,-2.6389 -2.059433,-4.38097 0.724854,-2.10989 3.15553,-3.09757 5.204739,-2.35899 2.414922,0.8704 3.537888,3.67246 2.658542,6.02851 -1.01524,2.72016 -4.189573,3.97866 -6.852283,2.9581 -3.025541,-1.15963 -4.419736,-4.70683 -3.25765,-7.67606 1.303685,-3.33102 5.224178,-4.86104 8.499826,-3.5572 3.636591,1.44751 5.302527,5.74161 3.856758,9.3236" />
      <path
         transform="rotate(85.254092,65.186178,242.7099)"
         d="m 64.413391,243.48239 c 0.423018,0.19741 -0.0574,0.66762 -0.328105,0.70308 -0.733594,0.0961 -1.158876,-0.73364 -1.078062,-1.35929 0.144558,-1.11914 1.369341,-1.68946 2.390482,-1.45304 1.498565,0.34696 2.231504,2.01212 1.828019,3.42167 -0.537782,1.87871 -2.657202,2.77817 -4.452859,2.203 -2.259651,-0.72379 -3.327162,-3.30334 -2.577976,-5.48405 0.907364,-2.64113 3.950058,-3.8775 6.515236,-2.95295 3.022973,1.08955 4.428689,4.59714 3.327933,7.54642 -1.270866,3.40507 -5.244461,4.98044 -8.577613,3.70291 -3.787339,-1.4516 -5.532577,-5.89195 -4.07789,-9.6088 1.631939,-4.16974 6.539569,-6.085 10.63999,-4.45287 4.552244,1.81198 6.637645,7.18728 4.827847,11.67118"
         sodipodi:t0="0"
         sodipodi:argument="-18.41293"
         sodipodi:radius="9.3104792"
         sodipodi:revolution="3"
         sodipodi:expansion="1"
         sodipodi:cy="243.48239"
         sodipodi:cx="64.413391"
         id="path1588"
         style="fill:none;fill-opacity:1;fill-rule:evenodd;stroke:#000000;stroke-width:1.42690217;stroke-miterlimit:4;stroke-dasharray:none"
         sodipodi:type="spiral" />
      <path
         sodipodi:type="spiral"
         style="fill:none;fill-opacity:1;fill-rule:evenodd;stroke:#000000;stroke-width:1.29094112;stroke-miterlimit:4;stroke-dasharray:none"
         id="path1590"
         sodipodi:cx="17.876591"
         sodipodi:cy="278.82062"
         sodipodi:expansion="1"
         sodipodi:revolution="3"
         sodipodi:radius="8.4233379"
         sodipodi:argument="-18.41293"
         sodipodi:t0="0"
         d="m 17.876591,278.82062 c 0.382711,0.1786 -0.05193,0.604 -0.296842,0.63609 -0.663694,0.087 -1.048454,-0.66374 -0.97534,-1.22978 0.130784,-1.0125 1.238865,-1.52848 2.162707,-1.31458 1.355776,0.3139 2.018877,1.82039 1.653838,3.09563 -0.48654,1.69971 -2.404013,2.51345 -4.028572,1.99309 -2.044342,-0.65482 -3.010136,-2.98858 -2.332336,-4.9615 0.820907,-2.38948 3.57368,-3.50804 5.894437,-2.67159 2.734932,0.98574 4.006706,4.15911 3.010834,6.82737 -1.149773,3.08062 -4.744747,4.50588 -7.760302,3.35008 -3.426466,-1.31328 -5.00541,-5.33054 -3.689332,-8.69323 1.476441,-3.77243 5.916452,-5.5052 9.626167,-4.02858 4.118487,1.63933 6.005183,6.50244 4.36783,10.5591" />
      <path
         transform="rotate(-73.973002,109.98061,272.97643)"
         d="m 108.76741,274.18918 c 0.6641,0.30991 -0.0901,1.04809 -0.51509,1.10377 -1.15168,0.1509 -1.81933,-1.15175 -1.69246,-2.13396 0.22694,-1.75694 2.14974,-2.6523 3.75283,-2.28114 2.35261,0.5447 3.50325,3.15884 2.86982,5.3717 -0.84427,2.94941 -4.17156,4.36146 -6.99057,3.4585 -3.54744,-1.13628 -5.22333,-5.18593 -4.04718,-8.60944 1.42448,-4.14632 6.20122,-6.08731 10.22831,-4.63586 4.74578,1.71049 6.95262,7.21708 5.22454,11.84718 -1.99514,5.34564 -8.23331,7.81882 -13.46605,5.81322 -5.945763,-2.27888 -8.685623,-9.24981 -6.401901,-15.08491 2.561991,-6.54611 10.266511,-9.55289 16.703781,-6.99059 7.1466,2.84464 10.42048,11.28336 7.57927,18.32266"
         sodipodi:t0="0"
         sodipodi:argument="-18.41293"
         sodipodi:radius="14.616578"
         sodipodi:revolution="3"
         sodipodi:expansion="1"
         sodipodi:cy="274.18918"
         sodipodi:cx="108.76741"
         id="path1592"
         style="fill:none;fill-opacity:1;fill-rule:evenodd;stroke:#000000;stroke-width:2.24010253;stroke-miterlimit:4;stroke-dasharray:none"
         sodipodi:type="spiral" />
      <path
         sodipodi:type="spiral"
         style="fill:none;fill-opacity:1;fill-rule:evenodd;stroke:#000000;stroke-width:0.56586647;stroke-miterlimit:4;stroke-dasharray:none"
         id="path1594"
         sodipodi:cx="107.85815"
         sodipodi:cy="215.7764"
         sodipodi:expansion="1"
         sodipodi:revolution="3"
         sodipodi:radius="3.6922557"
         sodipodi:argument="-18.41293"
         sodipodi:t0="0"
         d="m 107.85815,215.7764 c 0.16775,0.0783 -0.0228,0.26475 -0.13012,0.27882 -0.29092,0.0381 -0.45958,-0.29094 -0.42753,-0.53906 0.0573,-0.44381 0.54304,-0.66999 0.948,-0.57623 0.59428,0.1376 0.88494,0.79795 0.72493,1.35693 -0.21326,0.74505 -1.05376,1.10174 -1.76587,0.87365 -0.89611,-0.28704 -1.31945,-1.31001 -1.02234,-2.17481 0.35983,-1.04739 1.56647,-1.5377 2.58374,-1.17105 1.19882,0.43208 1.75629,1.82308 1.31976,2.99268 -0.50399,1.35035 -2.07979,1.97509 -3.40162,1.46846 -1.50195,-0.57566 -2.19406,-2.33657 -1.61717,-3.81056 0.64718,-1.65359 2.5934,-2.41313 4.2195,-1.76587 1.80528,0.71857 2.63229,2.85026 1.91458,4.62844" />
      <path
         transform="rotate(100.26056,115.73126,180.66356)"
         d="m 114.98438,181.41016 c 0.40884,0.19079 -0.0555,0.64523 -0.3171,0.67951 -0.709,0.0929 -1.12003,-0.70905 -1.04192,-1.31372 0.13971,-1.08163 1.32343,-1.63283 2.31034,-1.40433 1.44833,0.33533 2.15669,1.94466 1.76674,3.30696 -0.51976,1.81573 -2.56813,2.68503 -4.30359,2.12914 -2.18389,-0.69952 -3.21562,-3.19259 -2.49155,-5.3002 0.87695,-2.55259 3.81764,-3.74751 6.29682,-2.85396 2.92163,1.05303 4.28022,4.44303 3.21637,7.29344 -1.22826,3.29092 -5.06865,4.81347 -8.29006,3.57878 -3.66037,-1.40294 -5.3471,-5.69443 -3.94118,-9.28668 1.57723,-4.02996 6.32034,-5.88101 10.28329,-4.30359 4.39964,1.75123 6.41513,6.94633 4.666,11.27991"
         sodipodi:t0="0"
         sodipodi:argument="-18.41293"
         sodipodi:radius="8.9983549"
         sodipodi:revolution="3"
         sodipodi:expansion="1"
         sodipodi:cy="181.41016"
         sodipodi:cx="114.98438"
         id="path1596"
         style="fill:none;fill-opacity:1;fill-rule:evenodd;stroke:#000000;stroke-width:1.37906682;stroke-miterlimit:4;stroke-dasharray:none"
         sodipodi:type="spiral" />
      <path
         sodipodi:type="spiral"
         style="fill:none;fill-opacity:1;fill-rule:evenodd;stroke:#000000;stroke-width:1.18772554;stroke-miterlimit:4;stroke-dasharray:none"
         id="path1598"
         sodipodi:cx="19.143154"
         sodipodi:cy="183.72791"
         sodipodi:expansion="1"
         sodipodi:revolution="3"
         sodipodi:radius="7.7498612"
         sodipodi:argument="-18.41293"
         sodipodi:t0="0"
         d="m 19.143154,183.72791 c 0.352112,0.16431 -0.04778,0.5557 -0.273108,0.58523 -0.610629,0.08 -0.964626,-0.61067 -0.897358,-1.13145 0.120327,-0.93155 1.139813,-1.40628 1.989791,-1.20948 1.247376,0.2888 1.85746,1.67484 1.521607,2.84813 -0.447639,1.5638 -2.211803,2.31249 -3.706473,1.83373 -1.880889,-0.60247 -2.769465,-2.74963 -2.145857,-4.56481 0.755273,-2.19843 3.287952,-3.22756 5.423155,-2.45799 2.516264,0.90692 3.686355,3.82657 2.770107,6.2815 -1.057844,2.83431 -4.365387,4.14562 -7.139838,3.08223 -3.152507,-1.20829 -4.605209,-4.90434 -3.394356,-7.99818 1.358394,-3.47081 5.44341,-5.06504 8.85652,-3.70648 3.789199,1.50826 5.525047,5.98255 4.018606,9.71486" />
      <path
         d="m 63.971699,273.58545 c 0.167756,0.0783 -0.02276,0.26475 -0.130117,0.27882 -0.290921,0.0381 -0.459575,-0.29094 -0.427527,-0.53905 0.05733,-0.44382 0.54304,-0.67 0.947993,-0.57624 0.594286,0.1376 0.884948,0.79795 0.724938,1.35694 -0.213269,0.74504 -1.053767,1.10173 -1.76587,0.87364 -0.89611,-0.28703 -1.319452,-1.31001 -1.022348,-2.17481 0.359834,-1.04739 1.566474,-1.5377 2.583747,-1.17105 1.19882,0.43208 1.756285,1.82308 1.319758,2.99268 -0.503988,1.35035 -2.079796,1.97509 -3.401623,1.46847 -1.501945,-0.57567 -2.194054,-2.33658 -1.617169,-3.81057 0.647178,-1.65359 2.593397,-2.41313 4.2195,-1.76587 1.805283,0.71858 2.63229,2.85026 1.914579,4.62844"
         sodipodi:t0="0"
         sodipodi:argument="-18.41293"
         sodipodi:radius="3.6922557"
         sodipodi:revolution="3"
         sodipodi:expansion="1"
         sodipodi:cy="273.58545"
         sodipodi:cx="63.971699"
         id="path1600"
         style="fill:none;fill-opacity:1;fill-rule:evenodd;stroke:#000000;stroke-width:0.56586647;stroke-miterlimit:4;stroke-dasharray:none"
         sodipodi:type="spiral" />
    </g>
  </g>
</svg>
