<?xml version="1.0" encoding="UTF-8" standalone="no"?>
<!-- Created with Inkscape (http://www.inkscape.org/) -->

<svg
   xmlns:dc="http://purl.org/dc/elements/1.1/"
   xmlns:cc="http://creativecommons.org/ns#"
   xmlns:rdf="http://www.w3.org/1999/02/22-rdf-syntax-ns#"
   xmlns:svg="http://www.w3.org/2000/svg"
   xmlns="http://www.w3.org/2000/svg"
   xmlns:sodipodi="http://sodipodi.sourceforge.net/DTD/sodipodi-0.dtd"
   xmlns:inkscape="http://www.inkscape.org/namespaces/inkscape"
   width="500"
   height="500"
   viewBox="0 0 132.29166 132.29167"
   version="1.1"
   id="svg841"
   inkscape:version="0.92.4 (fd57863, 2020-04-02)"
   sodipodi:docname="pattern_rect.svg">
  <defs
     id="defs835" />
  <sodipodi:namedview
     id="base"
     pagecolor="#ffffff"
     bordercolor="#666666"
     borderopacity="1.0"
     inkscape:pageopacity="0.0"
     inkscape:pageshadow="2"
     inkscape:zoom="0.85489506"
     inkscape:cx="266.53598"
     inkscape:cy="228.78625"
     inkscape:document-units="mm"
     inkscape:current-layer="layer1"
     showgrid="false"
     units="px"
     inkscape:window-width="1299"
     inkscape:window-height="713"
     inkscape:window-x="67"
     inkscape:window-y="27"
     inkscape:window-maximized="1"
     inkscape:snap-global="false" />
  <metadata
     id="metadata838">
    <rdf:RDF>
      <cc:Work
         rdf:about="">
        <dc:format>image/svg+xml</dc:format>
        <dc:type
           rdf:resource="http://purl.org/dc/dcmitype/StillImage" />
        <dc:title></dc:title>
      </cc:Work>
    </rdf:RDF>
  </metadata>
  <g
     inkscape:label="Layer 1"
     inkscape:groupmode="layer"
     id="layer1"
     transform="translate(0,-164.70832)">
    <path
       style="opacity:1;fill:#000000;fill-opacity:1;stroke:none;stroke-width:2.83338523;stroke-miterlimit:4;stroke-dasharray:none;stroke-opacity:0.40825692"
       d="M 11.697266 11.050781 L 11.697266 84.646484 L 88.900391 84.646484 L 88.900391 11.050781 L 11.697266 11.050781 z M 111.37109 11.050781 L 111.37109 84.646484 L 188.57227 84.646484 L 188.57227 11.050781 L 111.37109 11.050781 z M 211.04297 11.050781 L 211.04297 84.646484 L 288.24609 84.646484 L 288.24609 11.050781 L 211.04297 11.050781 z M 310.7168 11.050781 L 310.7168 84.646484 L 387.91797 84.646484 L 387.91797 11.050781 L 310.7168 11.050781 z M 410.38867 11.050781 L 410.38867 84.646484 L 487.5918 84.646484 L 487.5918 11.050781 L 410.38867 11.050781 z M 11.697266 111.96484 L 11.697266 185.56055 L 88.900391 185.56055 L 88.900391 111.96484 L 11.697266 111.96484 z M 111.37109 111.96484 L 111.37109 185.56055 L 188.57227 185.56055 L 188.57227 111.96484 L 111.37109 111.96484 z M 211.04297 111.96484 L 211.04297 185.56055 L 288.24609 185.56055 L 288.24609 111.96484 L 211.04297 111.96484 z M 310.7168 111.96484 L 310.7168 185.56055 L 387.91797 185.56055 L 387.91797 111.96484 L 310.7168 111.96484 z M 410.38867 111.96484 L 410.38867 185.56055 L 487.5918 185.56055 L 487.5918 111.96484 L 410.38867 111.96484 z M 11.697266 212.87891 L 11.697266 286.47461 L 88.900391 286.47461 L 88.900391 212.87891 L 11.697266 212.87891 z M 111.37109 212.87891 L 111.37109 286.47461 L 188.57227 286.47461 L 188.57227 212.87891 L 111.37109 212.87891 z M 211.04297 212.87891 L 211.04297 286.47461 L 288.24609 286.47461 L 288.24609 212.87891 L 211.04297 212.87891 z M 310.7168 212.87891 L 310.7168 286.47461 L 387.91797 286.47461 L 387.91797 212.87891 L 310.7168 212.87891 z M 410.38867 212.87891 L 410.38867 286.47461 L 487.5918 286.47461 L 487.5918 212.87891 L 410.38867 212.87891 z M 11.697266 313.79297 L 11.697266 387.38867 L 88.900391 387.38867 L 88.900391 313.79297 L 11.697266 313.79297 z M 111.37109 313.79297 L 111.37109 387.38867 L 188.57227 387.38867 L 188.57227 313.79297 L 111.37109 313.79297 z M 211.04297 313.79297 L 211.04297 387.38867 L 288.24609 387.38867 L 288.24609 313.79297 L 211.04297 313.79297 z M 310.7168 313.79297 L 310.7168 387.38867 L 387.91797 387.38867 L 387.91797 313.79297 L 310.7168 313.79297 z M 410.38867 313.79297 L 410.38867 387.38867 L 487.5918 387.38867 L 487.5918 313.79297 L 410.38867 313.79297 z M 11.697266 414.70703 L 11.697266 488.30273 L 88.900391 488.30273 L 88.900391 414.70703 L 11.697266 414.70703 z M 111.37109 414.70703 L 111.37109 488.30273 L 188.57227 488.30273 L 188.57227 414.70703 L 111.37109 414.70703 z M 211.04297 414.70703 L 211.04297 488.30273 L 288.24609 488.30273 L 288.24609 414.70703 L 211.04297 414.70703 z M 310.7168 414.70703 L 310.7168 488.30273 L 387.91797 488.30273 L 387.91797 414.70703 L 310.7168 414.70703 z M 410.38867 414.70703 L 410.38867 488.30273 L 487.5918 488.30273 L 487.5918 414.70703 L 410.38867 414.70703 z "
       transform="matrix(0.26458333,0,0,0.26458333,0,164.70832)"
       id="rect2632" />
  </g>
</svg>
