<?xml version="1.0" encoding="UTF-8" standalone="no"?>
<!-- Created with Inkscape (http://www.inkscape.org/) -->

<svg
   xmlns:dc="http://purl.org/dc/elements/1.1/"
   xmlns:cc="http://creativecommons.org/ns#"
   xmlns:rdf="http://www.w3.org/1999/02/22-rdf-syntax-ns#"
   xmlns:svg="http://www.w3.org/2000/svg"
   xmlns="http://www.w3.org/2000/svg"
   xmlns:sodipodi="http://sodipodi.sourceforge.net/DTD/sodipodi-0.dtd"
   xmlns:inkscape="http://www.inkscape.org/namespaces/inkscape"
   width="500"
   height="500"
   viewBox="0 0 132.29166 132.29167"
   version="1.1"
   id="svg8"
   inkscape:version="0.92.4 (fd57863, 2020-04-02)"
   sodipodi:docname="small_rect.svg"
   inkscape:export-filename="/home/farid/Documents/OPILUM/frame/small_rect.png"
   inkscape:export-xdpi="96"
   inkscape:export-ydpi="96">
  <defs
     id="defs2">
    <clipPath
       clipPathUnits="userSpaceOnUse"
       id="clipPath1007">
      <g
         id="use1009"
         inkscape:label="Clip">
        <path
           inkscape:connector-curvature="0"
           style="opacity:1;fill:#000000;fill-opacity:1;stroke:none;stroke-width:0.76782084;stroke-miterlimit:4;stroke-dasharray:none;stroke-opacity:0.40825692"
           inkscape:transform-center-x="-0.1669823"
           inkscape:transform-center-y="-1.8863825"
           d="m 27.781251,270.93362 -7.035563,0.28922 -7.035564,0.28923 3.267308,-6.23759 3.267308,-6.23759 3.768255,5.94836 z"
           id="path1193" />
      </g>
    </clipPath>
  </defs>
  <sodipodi:namedview
     id="base"
     pagecolor="#ffffff"
     bordercolor="#666666"
     borderopacity="1.0"
     inkscape:pageopacity="0.0"
     inkscape:pageshadow="2"
     inkscape:zoom="1.064"
     inkscape:cx="250"
     inkscape:cy="217.42031"
     inkscape:document-units="mm"
     inkscape:current-layer="layer1"
     showgrid="false"
     inkscape:window-width="1299"
     inkscape:window-height="713"
     inkscape:window-x="67"
     inkscape:window-y="27"
     inkscape:window-maximized="1"
     units="px"
     inkscape:snap-global="false" />
  <metadata
     id="metadata5">
    <rdf:RDF>
      <cc:Work
         rdf:about="">
        <dc:format>image/svg+xml</dc:format>
        <dc:type
           rdf:resource="http://purl.org/dc/dcmitype/StillImage" />
        <dc:title></dc:title>
      </cc:Work>
    </rdf:RDF>
  </metadata>
  <g
     inkscape:label="Layer 1"
     inkscape:groupmode="layer"
     id="layer1"
     transform="translate(0,-164.70832)">
    <path
       style="fill:#000000;stroke-width:0.26458335"
       d="m 97.949014,290.96768 c -2.379749,-1.30377 -3.208858,-1.88672 -3.133219,-2.20299 0.178218,-0.7452 3.106486,-5.80219 3.296044,-5.69212 0.09948,0.0578 1.490559,0.8433 3.091291,1.74565 1.60073,0.90234 3.00861,1.73527 3.12862,1.85096 0.15609,0.15046 -2.58795,5.48442 -3.0961,6.01829 -0.0278,0.0292 -1.506794,-0.74469 -3.286636,-1.71979 z m -33.203079,-2.10364 c -0.672894,-1.85539 -1.258271,-3.54518 -1.300834,-3.75508 -0.05129,-0.25292 0.458081,-0.57845 1.510109,-0.9651 0.873125,-0.32089 2.378792,-0.88329 3.345924,-1.24978 l 1.758426,-0.66634 1.361207,3.71527 c 0.748665,2.0434 1.309806,3.76668 1.246981,3.8295 -0.132022,0.13202 -6.312257,2.45694 -6.543995,2.46176 -0.0849,0.002 -0.704922,-1.51484 -1.377818,-3.37023 z m -49.076891,-9.12812 c -0.425677,-0.76399 -1.208926,-2.1834 -1.740552,-3.15425 l -0.966594,-1.76518 3.484075,-1.88639 c 2.814317,-1.52376 3.544491,-1.8202 3.798359,-1.5421 0.172856,0.18935 0.984869,1.61627 1.804474,3.17093 l 1.490189,2.82666 -3.453249,1.8697 c -1.899287,1.02833 -3.495885,1.86969 -3.547996,1.86969 -0.05211,0 -0.443028,-0.62508 -0.868706,-1.38906 z m 30.630514,-1.04051 c -0.0013,-0.0462 -0.337429,-1.88942 -0.746755,-4.09609 l -0.744225,-4.01211 2.532689,-0.4447 c 1.392981,-0.24459 3.005715,-0.5458 3.583853,-0.66937 0.578136,-0.12356 1.097875,-0.17795 1.154973,-0.12085 0.0571,0.0571 0.383783,1.62798 0.725969,3.49086 0.342183,1.86287 0.684789,3.64247 0.761343,3.95466 0.131263,0.53528 -0.04534,0.60061 -3.100043,1.14676 -1.78158,0.31853 -3.447595,0.63667 -3.702257,0.70698 -0.254661,0.0703 -0.464158,0.0901 -0.465547,0.0439 z m 23.153569,-4.0577 c -1.164167,-0.33636 -2.622683,-0.74532 -3.241146,-0.9088 -0.618464,-0.16348 -1.124479,-0.44008 -1.124479,-0.61466 0,-0.17458 0.43539,-1.8964 0.967531,-3.82626 0.728022,-2.64024 1.071882,-3.50725 1.389062,-3.50239 0.231844,0.004 1.433563,0.2966 2.67049,0.65124 l 2.248958,0.64479 2.778126,-2.74701 2.778125,-2.74702 2.574904,2.44837 2.574903,2.44836 -2.750304,2.88856 -2.750304,2.88855 -1.852898,-1.82294 -1.852898,-1.82293 -0.528111,1.82293 c -0.290463,1.00262 -0.720506,2.50755 -0.955657,3.34429 -0.235148,0.83675 -0.513514,1.50901 -0.618588,1.49392 -0.105076,-0.0151 -1.143548,-0.30264 -2.307714,-0.639 z M 21.472273,256.61288 c -1.607264,-2.53717 -1.881811,-3.12521 -1.5875,-3.40016 0.195719,-0.18285 1.712141,-1.18935 3.369827,-2.23668 2.469804,-1.56041 3.07332,-1.84102 3.342669,-1.5542 0.37042,0.39444 3.83644,5.86534 3.751967,5.92224 -0.625473,0.42134 -6.849086,4.34773 -6.884097,4.34308 -0.02723,-0.004 -0.924022,-1.38704 -1.992866,-3.07428 z m 42.482529,-1.58149 -3.117075,-1.7397 0.972836,-1.75992 c 2.088145,-3.77758 3.050368,-5.3398 3.22607,-5.2377 0.100737,0.0585 1.492848,0.8463 3.093577,1.75057 1.600729,0.90427 2.947583,1.68015 2.993009,1.72417 0.110233,0.10682 -3.749614,7.00411 -3.919051,7.00308 -0.07276,-5.3e-4 -1.534975,-0.78366 -3.249366,-1.7405 z m -24.204187,-3.45088 c -0.765652,-1.98582 -1.360964,-3.63429 -1.322917,-3.66327 0.47761,-0.36382 6.436606,-2.46292 6.572652,-2.31527 0.206344,0.22394 2.906319,7.02868 2.814815,7.09417 -0.134546,0.0963 -6.436794,2.49946 -6.549133,2.49731 -0.06783,-0.001 -0.749766,-1.62712 -1.515417,-3.61294 z m 67.851435,-2.75627 -2.56019,-2.40282 2.68846,-2.87711 2.68846,-2.87711 1.54214,1.33597 1.54213,1.33598 1.97314,-1.08292 1.97314,-1.08293 0.90377,1.65344 c 0.49707,0.9094 1.26516,2.33779 1.70686,3.17422 l 0.8031,1.52077 -2.81851,1.49139 c -1.55018,0.82027 -3.08221,1.65396 -3.40451,1.85267 -0.79924,0.49273 -0.7887,0.49799 -1.39837,-0.69706 -0.29696,-0.58208 -0.59734,-1.05833 -0.66753,-1.05833 -0.0702,0 -0.55786,0.47625 -1.08374,1.05833 -0.52587,0.58208 -1.03984,1.05833 -1.14215,1.05833 -0.10231,0 -1.3381,-1.08127 -2.7462,-2.40282 z m -74.199509,-5.93538 -1.584561,-3.04654 2.677991,-1.43153 c 3.121951,-1.66886 4.102336,-2.12796 4.222234,-1.97723 0.175575,0.22073 3.085963,5.7831 3.085963,5.89793 0,0.11805 -6.482652,3.60391 -6.702195,3.60391 -0.06318,0 -0.827924,-1.37095 -1.699432,-3.04654 z m -18.843107,-5.31041 c -1.669447,-0.6586 -3.071048,-1.23314 -3.11467,-1.27676 -0.193891,-0.19389 2.743346,-7.28736 3.01992,-7.29315 0.524463,-0.011 6.287071,2.32066 6.373064,2.57864 0.144583,0.43375 -2.616163,7.20471 -2.934293,7.1966 -0.169765,-0.004 -1.674574,-0.54673 -3.344021,-1.20533 z m 73.67911,-2.22412 c -1.455208,-1.16138 -2.612578,-2.20255 -2.57193,-2.31371 0.04064,-0.11115 1.092557,-1.4828 2.337578,-3.0481 1.40662,-1.76846 2.380385,-2.77589 2.57193,-2.66083 1.347049,0.80917 5.167328,4.16309 5.023239,4.41003 -0.201819,0.3459 -4.585547,5.72774 -4.663742,5.72562 -0.02818,-7.7e-4 -1.241867,-0.95162 -2.697075,-2.11301 z m -3.766458,-10.78404 c -1.149747,-1.56435 -2.166699,-2.97375 -2.259896,-3.13201 -0.09515,-0.16158 0.580578,-0.83845 1.541158,-1.54376 0.940835,-0.69081 1.647997,-1.35732 1.571472,-1.48114 -0.114586,-0.18541 2.358517,-6.79665 2.655602,-7.09911 0.05024,-0.0512 1.534289,0.4713 3.29788,1.161 2.563575,1.00257 3.175252,1.33953 3.050532,1.68051 -0.0858,0.23457 -0.711171,1.83245 -1.389716,3.55085 -1.154067,2.92264 -1.273926,3.11426 -1.856536,2.96804 -0.535871,-0.1345 -0.586624,-0.0905 -0.363543,0.31522 0.142603,0.25935 0.565851,0.88202 0.940554,1.38372 0.374703,0.50169 0.591691,0.99128 0.482198,1.08798 -0.607817,0.5368 -5.296964,3.95297 -5.425967,3.95297 -0.08431,0 -1.093991,-1.27992 -2.243738,-2.84427 z m -21.331555,-0.29156 c -1.100215,-4.96706 -1.274617,-5.90161 -1.128586,-6.04764 0.14995,-0.14995 6.873322,-1.68281 6.931155,-1.58024 0.01492,0.0264 0.351287,1.5959 0.747509,3.48767 0.396219,1.89177 0.776719,3.63511 0.84555,3.87409 0.101433,0.35216 -0.265144,0.51999 -1.934149,0.88555 -1.132615,0.24807 -2.737128,0.60594 -3.565584,0.79528 l -1.506283,0.34424 z m -11.568259,-10.76556 -2.005854,-1.41562 -2.714146,0.40291 c -1.492779,0.22161 -2.762644,0.35442 -2.821924,0.29514 -0.05928,-0.0593 -0.311997,-1.49723 -0.561599,-3.19545 -0.2496,-1.69822 -0.51788,-3.08303 -0.596178,-3.07735 -0.0783,0.006 -0.533088,0.54145 -1.010642,1.19062 -0.477554,0.64917 -0.957361,1.18031 -1.066231,1.18031 -0.266626,0 -6.167425,-4.67433 -6.174127,-4.89085 -0.0029,-0.0939 0.970603,-1.41704 2.163356,-2.94023 l 2.168641,-2.76944 0.962279,0.72089 c 0.896337,0.67149 4.644493,3.6363 5.162,4.08317 0.127032,0.10969 -0.01545,0.5455 -0.316624,0.96846 l -0.547593,0.76902 2.301,-0.34605 c 3.635269,-0.5467 3.435998,-0.61686 3.651229,1.28552 l 0.185883,1.64299 0.687149,-0.89649 c 1.65127,-2.15432 1.435452,-2.02108 2.301251,-1.42072 0.421933,0.29258 0.919247,0.62006 1.10514,0.72774 0.238893,0.13837 0.689261,-0.54577 1.536079,-2.33342 l 1.198089,-2.52919 2.15492,1.08347 c 2.356247,1.1847 2.287114,1.19382 3.244577,-0.42788 0.240575,-0.40747 0.633384,-0.23733 3.651692,1.5817 3.250499,1.95897 3.368001,2.06047 3.019288,2.60803 -0.199557,0.31335 -0.999078,1.6413 -1.776709,2.95099 -0.777632,1.30968 -1.44857,2.42548 -1.490975,2.47954 -0.0424,0.0541 -1.04035,-0.46642 -2.217658,-1.15663 -1.177309,-0.69021 -2.180082,-1.21069 -2.228384,-1.15663 -0.0483,0.0541 -0.355217,0.63408 -0.682033,1.28892 -0.326816,0.65485 -0.627269,1.2284 -0.667673,1.27456 -0.0404,0.0462 -0.695084,-0.23106 -1.454846,-0.61606 -0.759764,-0.385 -1.469951,-0.60137 -1.578195,-0.48081 -0.108243,0.12055 -0.877588,1.20146 -1.709655,2.402 -0.832065,1.20055 -1.592234,2.17148 -1.689259,2.15763 -0.09703,-0.0138 -1.079048,-0.66221 -2.182268,-1.44079 z m 24.450348,-5.83671 c -1.284888,-1.3971 -2.33616,-2.68113 -2.33616,-2.85342 0,-0.17228 1.071563,-1.3007 2.38125,-2.50758 l 2.38125,-2.19435 2.572563,2.73266 c 1.414909,1.50297 2.575769,2.79282 2.579687,2.86635 0.01168,0.21906 -4.751562,4.49652 -5.007176,4.49652 -0.129389,0 -1.286526,-1.14308 -2.571414,-2.54018 z M 12.7,203.86664 v -3.96875 h 3.571875 3.571875 v 3.96875 3.96875 H 16.271875 12.7 Z m 49.620598,-5.93234 c -1.145649,-1.26191 -2.224297,-2.21962 -2.478347,-2.20049 -0.411904,0.031 -6.396416,-3.90703 -6.396416,-4.20911 0,-0.23074 3.798432,-5.64972 3.960175,-5.64972 0.08546,0 1.52133,0.95044 3.19083,2.1121 1.710214,1.18998 3.212515,2.05651 3.441015,1.98478 0.382492,-0.12008 1.010785,0.46442 4.442452,4.13279 l 1.13961,1.21822 -1.670894,1.58969 c -0.918993,0.87432 -2.104924,1.96463 -2.635401,2.4229 l -0.964501,0.83322 z m -25.66781,-7.87568 c -1.30529,-0.13365 -2.387788,-0.26644 -2.405552,-0.29509 -0.01775,-0.0286 0.120492,-1.54038 0.307234,-3.35939 0.186743,-1.81901 0.346507,-3.51993 0.355032,-3.77982 0.01415,-0.4313 0.223234,-0.45684 2.396749,-0.29276 1.309687,0.0989 2.38125,0.0998 2.38125,0.002 0,-0.0978 -0.358185,-0.88736 -0.795967,-1.75461 l -0.79597,-1.5768 3.205234,-1.60673 c 1.762876,-0.88371 3.238045,-1.56974 3.27815,-1.52451 0.04011,0.0452 0.45833,0.85614 0.929386,1.80202 0.471057,0.94589 0.896509,1.76403 0.945449,1.81809 0.04894,0.0541 0.621575,-0.21383 1.272527,-0.59532 0.650949,-0.38148 1.292635,-0.6936 1.425967,-0.6936 0.133334,0 1.14422,1.4765 2.246416,3.28111 l 2.003993,3.28111 -3.058808,1.88469 c -1.682345,1.03658 -3.087309,1.85203 -3.122141,1.81212 -0.03483,-0.0399 -0.567738,-0.90601 -1.184236,-1.92465 -0.616498,-1.01865 -1.154308,-1.88965 -1.195136,-1.93556 -0.04083,-0.0459 -0.792255,0.27899 -1.669833,0.72199 l -1.595602,0.80546 -0.185129,2.12228 -0.185129,2.12228 -1.090316,-0.0356 c -0.599673,-0.0196 -2.158278,-0.14498 -3.463568,-0.27863 z m 36.901381,-1.44771 c -0.509323,-0.0494 -1.567411,-0.16 -2.351305,-0.2458 l -1.425263,-0.15601 0.17671,-2.68841 c 0.09719,-1.47863 0.249724,-3.26784 0.338963,-3.97603 l 0.162248,-1.2876 2.144636,0.16978 c 1.179549,0.0934 2.78561,0.24203 3.569025,0.33032 l 1.42439,0.16053 -0.172077,2.4125 c -0.09464,1.32687 -0.24498,3.0971 -0.334087,3.93385 l -0.162007,1.52135 -1.222597,-0.0423 c -0.672425,-0.0233 -1.639314,-0.0828 -2.148636,-0.13214 z"
       id="path1429"
       inkscape:connector-curvature="0" />
  </g>
  <g
     inkscape:groupmode="layer"
     id="layer2"
     inkscape:label="Layer 2" />
</svg>
